<svg height="475pt" viewBox="0 0 475 475.88935" width="475pt" xmlns="http://www.w3.org/2000/svg" xmlns:xlink="http://www.w3.org/1999/xlink"><linearGradient id="a"><stop offset="0" stop-color="#fff200"/><stop offset="1" stop-color="#cd118c"/></linearGradient><linearGradient id="b" gradientUnits="userSpaceOnUse" x1="100.210967" x2="492.210967" xlink:href="#a" y1="-15.876947" y2="376.123053"/><linearGradient id="c" gradientUnits="userSpaceOnUse" x1="149.122967" x2="541.122967" xlink:href="#a" y1="-64.788947" y2="327.211053"/><path d="m454.609375 21.722656c-23.359375-23.367187-62.007813-28.054687-108.796875-13.222656-45.035156 14.277344-92.800781 45.09375-134.449219 86.773438-18.667969 18.585937-35.453125 38.96875-50.121093 60.851562h-152.800782c-3.234375 0-6.148437 1.949219-7.386718 4.9375-1.238282 2.988281-.554688 6.429688 1.730468 8.714844l113.546875 113.546875c-.207031 20.476562 7.488281 40.246093 21.480469 55.199219 15.015625 14.046874 34.878906 21.75 55.4375 21.496093l113.535156 113.527344c2.289063 2.289063 5.730469 2.972656 8.71875 1.734375 2.988282-1.238281 4.9375-4.15625 4.9375-7.390625v-152.960937c21.792969-14.628907 42.097656-31.363282 60.617188-49.957032 41.679687-41.679687 72.496094-89.417968 86.769531-134.402344 14.839844-46.832031 10.144531-85.472656-13.21875-108.847656zm-303.476563 150.402344c-2.160156 3.636719-4.179687 7.261719-6.144531 10.886719-.28125.496093-.554687 1-.800781 1.503906-1.945312 3.625-3.824219 7.199219-5.601562 10.839844l-.128907.273437c-3.300781 6.796875-6.214843 13.542969-8.796875 20.207032-.402344 1.015624-.800781 2.03125-1.203125 3.039062-1.03125 2.777344-1.972656 5.519531-2.878906 8.257812-.582031 1.757813-1.128906 3.503907-1.65625 5.238282-.742187 2.472656-1.496094 4.929687-2.136719 7.359375-.757812 2.878906-1.390625 5.710937-2 8.535156-.535156 2.519531-1.007812 5.007813-1.421875 7.480469-.34375 2-.726562 4-.992187 6l-89.617188-89.621094zm153.308594 276.453125-89.597656-89.597656c2.832031-.371094 5.726562-.882813 8.625-1.417969.503906-.09375.980469-.152344 1.484375-.246094 4.289063-.800781 8.65625-1.898437 13.074219-3.089844 1.230468-.335937 2.480468-.71875 3.71875-1.078124 3.351562-.976563 6.730468-2.042969 10.144531-3.203126 1.34375-.453124 2.671875-.902343 4-1.398437 4.488281-1.601563 9.007813-3.382813 13.601563-5.351563l.335937-.144531c4.566406-1.984375 9.175781-4.175781 13.800781-6.480469 1.414063-.703124 2.828125-1.445312 4.246094-2.183593 3.488281-1.808594 6.980469-3.703125 10.472656-5.6875 1.375-.800781 2.734375-1.527344 4.109375-2.335938.675781-.390625 1.347657-.746093 2.019531-1.144531zm65.304688-194.917969c-18.753906 18.894532-39.425782 35.785156-61.679688 50.398438-4.945312 3.234375-9.886718 6.28125-14.824218 9.152344-16.179688 9.527343-33.347657 17.261718-51.199219 23.070312-2.078125.664062-4.199219 1.433594-6.246094 2.019531-.441406.117188-.867187.191407-1.3125.308594-4.105469 1.128906-8.175781 2.144531-12.152344 2.929687-1.335937.265626-2.609375.367188-3.929687.59375-3.03125.519532-6.070313 1.0625-9.015625 1.367188-1.398438.144531-2.71875.117188-4.105469.222656-2.765625.191406-5.597656.441406-8.238281.441406h-.359375c-17.5 1.039063-34.671875-5.078124-47.578125-16.945312-11.832031-12.882812-17.929688-30.015625-16.894531-47.480469-.078126-32 14.152343-71.519531 40.097656-111.199219.148437-.238281.230468-.503906.359375-.753906 14.523437-22.054687 31.285156-42.550781 50.023437-61.15625 56.878906-56.90625 124.625-90.378906 173.246094-90.378906 17.402344-.988281 34.46875 5.066406 47.351562 16.800781 39.859376 39.871094 6.1875 140.886719-73.542968 220.609375zm0 0" fill="url(#b)"/><path d="m282.898438 68.988281c-22.742188 21.902344-38.609376 49.957031-45.664063 80.734375-5.886719 29.433594.257813 55.03125 17.320313 72.097656 13.671874 13.121094 32.070312 20.15625 51.007812 19.503907 7.085938-.035157 14.152344-.765625 21.097656-2.183594 30.757813-7.070313 58.792969-22.933594 80.6875-45.664063 22.738282-21.90625 38.605469-49.960937 45.664063-80.738281 5.886719-29.429687-.265625-55.03125-17.320313-72.09375-34.3125-34.320312-102.855468-21.601562-152.792968 28.34375zm154.402343 40.613281c-6.441406 27.667969-20.789062 52.863282-41.289062 72.523438-19.660157 20.503906-44.859375 34.847656-72.527344 41.285156-24 4.800782-44.480469.21875-57.601563-12.941406-13.121093-13.160156-17.75-33.601562-12.945312-57.648438 6.441406-27.667968 20.785156-52.863281 41.289062-72.519531 28-28 61.992188-43.257812 90.199219-43.257812 14.796875-.621094 29.21875 4.757812 40 14.910156 13.105469 13.160156 17.695313 33.632813 12.898438 57.648437zm0 0" fill="url(#c)"/></svg>